<svg width="47" height="36" viewBox="0 0 47 36" fill="none" xmlns="http://www.w3.org/2000/svg">
<path d="M16.9897 2.97418H29.5819V24.8367H16.9897V2.97418Z" fill="#FF5F00"/>
<path d="M8.47528 35.8409V33.5234C8.47528 32.6348 7.91551 32.0556 6.95603 32.0556C6.47638 32.0556 5.95667 32.2101 5.59685 32.7123C5.31714 32.2873 4.91744 32.0556 4.31779 32.0556C3.9179 32.0556 3.51837 32.1714 3.19842 32.5963V32.1328H2.35895V35.8409H3.19842V33.7937C3.19842 33.1372 3.55825 32.828 4.11802 32.828C4.67743 32.828 4.9575 33.1757 4.9575 33.7937V35.8409H5.79697V33.7937C5.79697 33.1372 6.1965 32.828 6.71621 32.828C7.27598 32.828 7.55569 33.1757 7.55569 33.7937V35.8409H8.47528ZM20.9074 32.1328H19.5483V31.0127H18.7089V32.1328H17.9493V32.8666H18.7087V34.5663C18.7087 35.4162 19.0685 35.9182 20.028 35.9182C20.3878 35.9182 20.7874 35.8024 21.0674 35.6479L20.8274 34.9525C20.5876 35.107 20.3079 35.1457 20.1079 35.1457C19.7082 35.1457 19.5483 34.914 19.5483 34.5276V32.8666H20.9074V32.1328ZM28.023 32.0554C27.5434 32.0554 27.2236 32.2873 27.0237 32.5963V32.1328H26.1842V35.8409H27.0237V33.7551C27.0237 33.1372 27.3034 32.7895 27.8231 32.7895C27.983 32.7895 28.1829 32.8282 28.3428 32.8668L28.5826 32.0943C28.4228 32.0556 28.1829 32.0556 28.023 32.0556V32.0554ZM17.2697 32.4418C16.8699 32.1714 16.3103 32.0556 15.7106 32.0556C14.7513 32.0556 14.1118 32.5191 14.1118 33.253C14.1118 33.8711 14.5914 34.2186 15.4309 34.3346L15.8306 34.3733C16.2704 34.4503 16.5102 34.5663 16.5102 34.7595C16.5102 35.0298 16.1904 35.223 15.6307 35.223C15.0711 35.223 14.6313 35.0298 14.3514 34.8367L13.9517 35.4547C14.3915 35.7637 14.9911 35.9182 15.5906 35.9182C16.71 35.9182 17.3497 35.4162 17.3497 34.7208C17.3497 34.0641 16.83 33.7164 16.0304 33.6007L15.6307 33.562C15.2708 33.5232 14.9911 33.4462 14.9911 33.2144C14.9911 32.944 15.2708 32.7895 15.7106 32.7895C16.1904 32.7895 16.6701 32.9825 16.9099 33.0985L17.2697 32.4418ZM39.5759 32.0556C39.0961 32.0556 38.7764 32.2873 38.5764 32.5963V32.1328H37.7369V35.8409H38.5764V33.7551C38.5764 33.1372 38.8563 32.7895 39.3758 32.7895C39.5359 32.7895 39.7358 32.8282 39.8957 32.8668L40.1355 32.0943C39.9757 32.0556 39.7358 32.0556 39.5759 32.0556ZM28.8625 33.9869C28.8625 35.107 29.6619 35.9182 30.9013 35.9182C31.4609 35.9182 31.8606 35.8024 32.2603 35.4934L31.8606 34.8367C31.5408 35.0685 31.2211 35.1843 30.8612 35.1843C30.1817 35.1843 29.702 34.7208 29.702 33.9869C29.702 33.2917 30.1817 32.828 30.8612 32.7895C31.2211 32.7895 31.5408 32.9053 31.8606 33.1372L32.2603 32.4805C31.8606 32.1714 31.4609 32.0556 30.9013 32.0556C29.6619 32.0556 28.8625 32.8668 28.8625 33.9869ZM36.6178 33.9869V32.1328H35.7783V32.5963C35.4984 32.2488 35.0987 32.0556 34.579 32.0556C33.4997 32.0556 32.6602 32.8668 32.6602 33.9869C32.6602 35.107 33.4997 35.9182 34.579 35.9182C35.1386 35.9182 35.5385 35.7251 35.7783 35.3774V35.8409H36.6178V33.9869ZM33.5396 33.9869C33.5396 33.3302 33.9793 32.7895 34.6988 32.7895C35.3784 32.7895 35.8582 33.2917 35.8582 33.9869C35.8582 34.6435 35.3784 35.1843 34.6988 35.1843C33.9793 35.1455 33.5396 34.6435 33.5396 33.9869ZM23.5059 32.0556C22.3865 32.0556 21.5869 32.828 21.5869 33.9869C21.5869 35.1457 22.3864 35.9182 23.5458 35.9182C24.1054 35.9182 24.6651 35.7637 25.1049 35.4162L24.705 34.8367C24.3853 35.0685 23.9856 35.223 23.5858 35.223C23.0661 35.223 22.5464 34.9912 22.4264 34.3344H25.2648V34.0256C25.3049 32.828 24.5852 32.0556 23.5057 32.0556H23.5059ZM23.5059 32.7508C24.0254 32.7508 24.3854 33.06 24.4652 33.6394H22.4665C22.5464 33.1372 22.9063 32.7508 23.5059 32.7508ZM44.3329 33.9869V30.665H43.4934V32.5963C43.2136 32.2488 42.8138 32.0556 42.2941 32.0556C41.2148 32.0556 40.3754 32.8668 40.3754 33.9869C40.3754 35.107 41.2148 35.9182 42.2941 35.9182C42.8539 35.9182 43.2536 35.7251 43.4934 35.3774V35.8409H44.3329V33.9869ZM41.2549 33.9869C41.2549 33.3302 41.6945 32.7895 42.4141 32.7895C43.0937 32.7895 43.5734 33.2917 43.5734 33.9869C43.5734 34.6435 43.0937 35.1843 42.4141 35.1843C41.6945 35.1455 41.2549 34.6435 41.2549 33.9869ZM13.1922 33.9869V32.1328H12.3527V32.5963C12.0728 32.2488 11.6731 32.0556 11.1534 32.0556C10.0741 32.0556 9.23464 32.8668 9.23464 33.9869C9.23464 35.107 10.0741 35.9182 11.1534 35.9182C11.7132 35.9182 12.1129 35.7251 12.3527 35.3774V35.8409H13.1922V33.9869ZM10.0741 33.9869C10.0741 33.3302 10.5139 32.7895 11.2334 32.7895C11.9129 32.7895 12.3928 33.2917 12.3928 33.9869C12.3928 34.6435 11.9129 35.1843 11.2334 35.1843C10.5139 35.1455 10.0741 34.6435 10.0741 33.9869Z" fill="white"/>
<path d="M17.7891 13.9055C17.7891 9.46353 19.9477 5.52356 23.2655 2.97416C20.8272 1.12013 17.7492 0 14.3913 0C6.43592 0 0 6.21876 0 13.9055C0 21.5921 6.43592 27.811 14.3911 27.811C17.749 27.811 20.827 26.6909 23.2655 24.8367C19.9477 22.326 17.7891 18.3475 17.7891 13.9055Z" fill="#EB001B"/>
<path d="M46.571 13.9055C46.571 21.5921 40.1351 27.811 32.1799 27.811C28.822 27.811 25.744 26.6909 23.3055 24.8367C26.6634 22.2874 28.7821 18.3475 28.7821 13.9055C28.7821 9.46353 26.6233 5.52356 23.3055 2.97416C25.7438 1.12013 28.822 0 32.1799 0C40.1351 0 46.5712 6.25747 46.5712 13.9055H46.571Z" fill="#F79E1B"/>
</svg>
