<svg width="55" height="18" viewBox="0 0 55 18" fill="none" xmlns="http://www.w3.org/2000/svg">
<path d="M39.9818 0.737304C38.7036 0.23992 37.3525 -0.00967049 35.9921 0.000286571C31.5928 0.000286571 28.4857 2.36697 28.4637 5.7643C28.4362 8.26019 30.6716 9.66669 32.3626 10.5006C34.0976 11.358 34.6778 11.8983 34.6723 12.6647C34.6613 13.8304 33.2865 14.3589 32.0079 14.3589C30.251 14.3589 29.2914 14.0976 27.8148 13.4428L27.2677 13.1697L26.6435 17.0809C27.7131 17.5566 29.6406 17.9648 31.6313 18C36.3083 18 39.3658 15.648 39.4016 12.0334C39.4401 10.0396 38.2303 8.53327 35.6841 7.28826C34.1361 6.48077 33.1765 5.94049 33.1765 5.12125C33.1765 4.39597 33.9986 3.62078 35.7171 3.62078C36.8609 3.59123 37.9975 3.82039 39.0524 4.2932L39.4648 4.48994L40.089 0.710878L39.9818 0.737304ZM51.398 0.31741H47.9611C46.8915 0.31741 46.0858 0.631597 45.6184 1.76502L39.0084 17.7563H43.6854L44.6203 15.1341L50.3285 15.14C50.4632 15.7537 50.8756 17.7563 50.8756 17.7563H55L51.398 0.31741ZM22.1369 0.170593H26.594L23.8059 17.6183H19.3543L22.1369 0.16472V0.170593ZM10.8224 9.78708L11.2843 12.2096L15.6397 0.31741H20.3607L13.3465 17.7328H8.63645L4.78703 2.98653C4.72469 2.74338 4.57827 2.53455 4.37734 2.40221C2.9899 1.63681 1.51982 1.05598 0 0.672704L0.0604908 0.305663H7.23416C8.20752 0.346771 8.99115 0.672705 9.25236 1.78264L10.8196 9.79589L10.8224 9.78708ZM45.8989 11.5665L47.6751 6.68631C47.6531 6.73917 48.0408 5.67915 48.2663 5.02435L48.5715 6.53069L49.6026 11.5636H45.8961L45.8989 11.5665Z" fill="white"/>
</svg>
