<svg width="36" height="36" viewBox="0 0 36 36" fill="none" xmlns="http://www.w3.org/2000/svg">
<g clip-path="url(#clip0_7_2111)">
<circle cx="18" cy="18" r="18" fill="#00B3FF"/>
<path d="M18.072 24.684C18.92 24.572 19.56 24.288 19.992 23.832C20.432 23.368 20.652 22.764 20.652 22.02C20.652 21.716 20.596 21.452 20.484 21.228C20.38 20.996 20.228 20.792 20.028 20.616C19.836 20.44 19.608 20.288 19.344 20.16C19.08 20.032 18.792 19.912 18.48 19.8L18.072 24.684ZM17.304 12C16.856 12.056 16.476 12.152 16.164 12.288C15.852 12.416 15.596 12.576 15.396 12.768C15.196 12.96 15.048 13.176 14.952 13.416C14.864 13.656 14.82 13.908 14.82 14.172C14.82 14.476 14.872 14.744 14.976 14.976C15.088 15.2 15.236 15.404 15.42 15.588C15.612 15.764 15.836 15.924 16.092 16.068C16.348 16.204 16.628 16.332 16.932 16.452L17.304 12ZM18.708 17.028C19.284 17.204 19.856 17.4 20.424 17.616C20.992 17.824 21.5 18.096 21.948 18.432C22.404 18.768 22.772 19.188 23.052 19.692C23.332 20.188 23.472 20.812 23.472 21.564C23.472 22.308 23.348 23.008 23.1 23.664C22.852 24.312 22.488 24.888 22.008 25.392C21.528 25.888 20.94 26.296 20.244 26.616C19.548 26.928 18.752 27.112 17.856 27.168L17.712 28.932C17.704 29.116 17.624 29.284 17.472 29.436C17.328 29.596 17.144 29.676 16.92 29.676H15.828L16.044 27.108C15.108 26.98 14.228 26.724 13.404 26.34C12.58 25.956 11.88 25.48 11.304 24.912L12.216 23.556C12.296 23.436 12.4 23.34 12.528 23.268C12.664 23.188 12.808 23.148 12.96 23.148C13.136 23.148 13.324 23.212 13.524 23.34C13.724 23.46 13.952 23.604 14.208 23.772C14.464 23.932 14.756 24.096 15.084 24.264C15.412 24.432 15.8 24.556 16.248 24.636L16.692 19.272C16.124 19.112 15.56 18.924 15 18.708C14.448 18.492 13.948 18.208 13.5 17.856C13.06 17.496 12.704 17.044 12.432 16.5C12.16 15.956 12.024 15.276 12.024 14.46C12.024 13.852 12.144 13.26 12.384 12.684C12.624 12.1 12.976 11.58 13.44 11.124C13.912 10.668 14.488 10.292 15.168 9.996C15.848 9.7 16.628 9.532 17.508 9.492L17.64 7.98C17.656 7.788 17.736 7.616 17.88 7.464C18.024 7.312 18.212 7.236 18.444 7.236H19.536L19.344 9.588C20.192 9.724 20.924 9.968 21.54 10.32C22.156 10.664 22.688 11.052 23.136 11.484L22.416 12.576C22.312 12.736 22.204 12.856 22.092 12.936C21.98 13.016 21.844 13.056 21.684 13.056C21.564 13.056 21.42 13.02 21.252 12.948C21.084 12.868 20.896 12.776 20.688 12.672C20.48 12.56 20.244 12.448 19.98 12.336C19.724 12.224 19.44 12.132 19.128 12.06L18.708 17.028Z" fill="white"/>
</g>
<defs>
<clipPath id="clip0_7_2111">
<rect width="36" height="36" fill="white"/>
</clipPath>
</defs>
</svg>
