<svg width="171" height="104" viewBox="0 0 171 104" fill="none" xmlns="http://www.w3.org/2000/svg">
<g clip-path="url(#clip0_7_2109)">
<circle cx="18" cy="28.4583" r="18" fill="#00B3FF"/>
<path d="M18.072 35.1423C18.92 35.0303 19.56 34.7463 19.992 34.2903C20.432 33.8263 20.652 33.2223 20.652 32.4783C20.652 32.1743 20.596 31.9103 20.484 31.6863C20.38 31.4543 20.228 31.2503 20.028 31.0743C19.836 30.8983 19.608 30.7463 19.344 30.6183C19.08 30.4903 18.792 30.3703 18.48 30.2583L18.072 35.1423ZM17.304 22.4583C16.856 22.5143 16.476 22.6103 16.164 22.7463C15.852 22.8743 15.596 23.0343 15.396 23.2263C15.196 23.4183 15.048 23.6343 14.952 23.8743C14.864 24.1143 14.82 24.3663 14.82 24.6303C14.82 24.9343 14.872 25.2023 14.976 25.4343C15.088 25.6583 15.236 25.8623 15.42 26.0463C15.612 26.2223 15.836 26.3823 16.092 26.5263C16.348 26.6623 16.628 26.7903 16.932 26.9103L17.304 22.4583ZM18.708 27.4863C19.284 27.6623 19.856 27.8583 20.424 28.0743C20.992 28.2823 21.5 28.5543 21.948 28.8903C22.404 29.2263 22.772 29.6463 23.052 30.1503C23.332 30.6463 23.472 31.2703 23.472 32.0223C23.472 32.7663 23.348 33.4663 23.1 34.1223C22.852 34.7703 22.488 35.3463 22.008 35.8503C21.528 36.3463 20.94 36.7543 20.244 37.0743C19.548 37.3863 18.752 37.5703 17.856 37.6263L17.712 39.3903C17.704 39.5743 17.624 39.7423 17.472 39.8943C17.328 40.0543 17.144 40.1343 16.92 40.1343H15.828L16.044 37.5663C15.108 37.4383 14.228 37.1823 13.404 36.7983C12.58 36.4143 11.88 35.9383 11.304 35.3703L12.216 34.0143C12.296 33.8943 12.4 33.7983 12.528 33.7263C12.664 33.6463 12.808 33.6063 12.96 33.6063C13.136 33.6063 13.324 33.6703 13.524 33.7983C13.724 33.9183 13.952 34.0623 14.208 34.2303C14.464 34.3903 14.756 34.5543 15.084 34.7223C15.412 34.8903 15.8 35.0143 16.248 35.0943L16.692 29.7303C16.124 29.5703 15.56 29.3823 15 29.1663C14.448 28.9503 13.948 28.6663 13.5 28.3143C13.06 27.9543 12.704 27.5023 12.432 26.9583C12.16 26.4143 12.024 25.7343 12.024 24.9183C12.024 24.3103 12.144 23.7183 12.384 23.1423C12.624 22.5583 12.976 22.0383 13.44 21.5823C13.912 21.1263 14.488 20.7503 15.168 20.4543C15.848 20.1583 16.628 19.9903 17.508 19.9503L17.64 18.4383C17.656 18.2463 17.736 18.0743 17.88 17.9223C18.024 17.7703 18.212 17.6943 18.444 17.6943H19.536L19.344 20.0463C20.192 20.1823 20.924 20.4263 21.54 20.7783C22.156 21.1223 22.688 21.5103 23.136 21.9423L22.416 23.0343C22.312 23.1943 22.204 23.3143 22.092 23.3943C21.98 23.4743 21.844 23.5143 21.684 23.5143C21.564 23.5143 21.42 23.4783 21.252 23.4063C21.084 23.3263 20.896 23.2343 20.688 23.1303C20.48 23.0183 20.244 22.9063 19.98 22.7943C19.724 22.6823 19.44 22.5903 19.128 22.5183L18.708 27.4863Z" fill="white"/>
</g>
<path d="M57.3758 34.7889C57.8758 34.7889 58.2958 34.7289 58.6358 34.6089C58.9758 34.4889 59.2458 34.3289 59.4458 34.1289C59.6525 33.9289 59.7992 33.6956 59.8858 33.4289C59.9792 33.1622 60.0258 32.8789 60.0258 32.5789C60.0258 32.2656 59.9758 31.9856 59.8758 31.7389C59.7758 31.4856 59.6192 31.2722 59.4058 31.0989C59.1925 30.9189 58.9158 30.7822 58.5758 30.6889C58.2425 30.5956 57.8392 30.5489 57.3658 30.5489H54.6558V34.7889H57.3758ZM54.6558 24.5089V28.6889H56.7958C57.7158 28.6889 58.4092 28.5222 58.8758 28.1889C59.3492 27.8556 59.5858 27.3256 59.5858 26.5989C59.5858 25.8456 59.3725 25.3089 58.9458 24.9889C58.5192 24.6689 57.8525 24.5089 56.9458 24.5089H54.6558ZM56.9458 22.4289C57.8925 22.4289 58.7025 22.5189 59.3758 22.6989C60.0492 22.8789 60.5992 23.1356 61.0258 23.4689C61.4592 23.8022 61.7758 24.2056 61.9758 24.6789C62.1758 25.1522 62.2758 25.6856 62.2758 26.2789C62.2758 26.6189 62.2258 26.9456 62.1258 27.2589C62.0258 27.5656 61.8692 27.8556 61.6558 28.1289C61.4492 28.3956 61.1825 28.6389 60.8558 28.8589C60.5358 29.0789 60.1525 29.2656 59.7058 29.4189C61.6925 29.8656 62.6858 30.9389 62.6858 32.6389C62.6858 33.2522 62.5692 33.8189 62.3358 34.3389C62.1025 34.8589 61.7625 35.3089 61.3158 35.6889C60.8692 36.0622 60.3192 36.3556 59.6658 36.5689C59.0125 36.7822 58.2658 36.8889 57.4258 36.8889H51.9658V22.4289H56.9458ZM70.0036 32.5089C69.2903 32.5422 68.6903 32.6056 68.2036 32.6989C67.717 32.7856 67.327 32.8989 67.0336 33.0389C66.7403 33.1789 66.5303 33.3422 66.4036 33.5289C66.277 33.7156 66.2136 33.9189 66.2136 34.1389C66.2136 34.5722 66.3403 34.8822 66.5936 35.0689C66.8536 35.2556 67.1903 35.3489 67.6036 35.3489C68.1103 35.3489 68.547 35.2589 68.9136 35.0789C69.287 34.8922 69.6503 34.6122 70.0036 34.2389V32.5089ZM64.3436 28.0589C65.5236 26.9789 66.9436 26.4389 68.6036 26.4389C69.2036 26.4389 69.7403 26.5389 70.2136 26.7389C70.687 26.9322 71.087 27.2056 71.4136 27.5589C71.7403 27.9056 71.987 28.3222 72.1536 28.8089C72.327 29.2956 72.4136 29.8289 72.4136 30.4089V36.8889H71.2936C71.0603 36.8889 70.8803 36.8556 70.7536 36.7889C70.627 36.7156 70.527 36.5722 70.4536 36.3589L70.2336 35.6189C69.9736 35.8522 69.7203 36.0589 69.4736 36.2389C69.227 36.4122 68.9703 36.5589 68.7036 36.6789C68.437 36.7989 68.1503 36.8889 67.8436 36.9489C67.5436 37.0156 67.2103 37.0489 66.8436 37.0489C66.4103 37.0489 66.0103 36.9922 65.6436 36.8789C65.277 36.7589 64.9603 36.5822 64.6936 36.3489C64.427 36.1156 64.2203 35.8256 64.0736 35.4789C63.927 35.1322 63.8536 34.7289 63.8536 34.2689C63.8536 34.0089 63.897 33.7522 63.9836 33.4989C64.0703 33.2389 64.2103 32.9922 64.4036 32.7589C64.6036 32.5256 64.8603 32.3056 65.1736 32.0989C65.487 31.8922 65.8703 31.7122 66.3236 31.5589C66.7836 31.4056 67.317 31.2822 67.9236 31.1889C68.5303 31.0889 69.2236 31.0289 70.0036 31.0089V30.4089C70.0036 29.7222 69.857 29.2156 69.5636 28.8889C69.2703 28.5556 68.847 28.3889 68.2936 28.3889C67.8936 28.3889 67.5603 28.4356 67.2936 28.5289C67.0336 28.6222 66.8036 28.7289 66.6036 28.8489C66.4036 28.9622 66.2203 29.0656 66.0536 29.1589C65.8936 29.2522 65.7136 29.2989 65.5136 29.2989C65.3403 29.2989 65.1936 29.2556 65.0736 29.1689C64.9536 29.0756 64.857 28.9689 64.7836 28.8489L64.3436 28.0589ZM77.0499 27.8889C77.2566 27.6822 77.4732 27.4922 77.6999 27.3189C77.9332 27.1389 78.1766 26.9889 78.4299 26.8689C78.6899 26.7422 78.9666 26.6456 79.2599 26.5789C79.5532 26.5056 79.8732 26.4689 80.2199 26.4689C80.7799 26.4689 81.2766 26.5656 81.7099 26.7589C82.1432 26.9456 82.5032 27.2122 82.7899 27.5589C83.0832 27.8989 83.3032 28.3089 83.4499 28.7889C83.6032 29.2622 83.6799 29.7856 83.6799 30.3589V36.8889H81.2099V30.3589C81.2099 29.7322 81.0666 29.2489 80.7799 28.9089C80.4932 28.5622 80.0566 28.3889 79.4699 28.3889C79.0432 28.3889 78.6432 28.4856 78.2699 28.6789C77.8966 28.8722 77.5432 29.1356 77.2099 29.4689V36.8889H74.7399V26.6289H76.2499C76.5699 26.6289 76.7799 26.7789 76.8799 27.0789L77.0499 27.8889ZM88.499 22.0289V30.5389H88.959C89.1256 30.5389 89.2556 30.5189 89.349 30.4789C89.449 30.4322 89.549 30.3422 89.649 30.2089L92.199 27.0589C92.3056 26.9189 92.4223 26.8122 92.549 26.7389C92.6823 26.6656 92.8523 26.6289 93.059 26.6289H95.319L92.129 30.4389C91.9023 30.7389 91.6556 30.9689 91.389 31.1289C91.529 31.2289 91.6523 31.3456 91.759 31.4789C91.8723 31.6122 91.979 31.7556 92.079 31.9089L95.499 36.8889H93.269C93.0756 36.8889 92.909 36.8589 92.769 36.7989C92.629 36.7322 92.5123 36.6156 92.419 36.4489L89.799 32.5589C89.7056 32.4056 89.609 32.3056 89.509 32.2589C89.409 32.2122 89.259 32.1889 89.059 32.1889H88.499V36.8889H86.029V22.0289H88.499ZM96.2419 29.8189H101.422V31.8789H96.2419V29.8189ZM109.993 34.7189C110.513 34.7189 110.976 34.6322 111.383 34.4589C111.796 34.2856 112.143 34.0422 112.423 33.7289C112.703 33.4156 112.916 33.0356 113.063 32.5889C113.216 32.1422 113.293 31.6422 113.293 31.0889V22.4289H115.983V31.0889C115.983 31.9489 115.843 32.7456 115.563 33.4789C115.29 34.2056 114.893 34.8356 114.373 35.3689C113.86 35.8956 113.233 36.3089 112.493 36.6089C111.753 36.9022 110.92 37.0489 109.993 37.0489C109.06 37.0489 108.223 36.9022 107.483 36.6089C106.743 36.3089 106.113 35.8956 105.593 35.3689C105.08 34.8356 104.683 34.2056 104.403 33.4789C104.13 32.7456 103.993 31.9489 103.993 31.0889V22.4289H106.683V31.0789C106.683 31.6322 106.756 32.1322 106.903 32.5789C107.056 33.0256 107.273 33.4089 107.553 33.7289C107.84 34.0422 108.186 34.2856 108.593 34.4589C109.006 34.6322 109.473 34.7189 109.993 34.7189ZM120.921 34.2289C121.201 34.5689 121.504 34.8089 121.831 34.9489C122.164 35.0889 122.514 35.1589 122.881 35.1589C123.261 35.1589 123.601 35.0922 123.901 34.9589C124.208 34.8189 124.468 34.6056 124.681 34.3189C124.894 34.0256 125.058 33.6556 125.171 33.2089C125.284 32.7556 125.341 32.2156 125.341 31.5889C125.341 30.4622 125.154 29.6489 124.781 29.1489C124.408 28.6422 123.871 28.3889 123.171 28.3889C122.698 28.3889 122.284 28.4989 121.931 28.7189C121.578 28.9322 121.241 29.2356 120.921 29.6289V34.2289ZM120.921 27.8889C121.334 27.4556 121.791 27.1122 122.291 26.8589C122.798 26.5989 123.374 26.4689 124.021 26.4689C124.614 26.4689 125.148 26.5856 125.621 26.8189C126.101 27.0522 126.508 27.3889 126.841 27.8289C127.181 28.2622 127.441 28.7889 127.621 29.4089C127.801 30.0289 127.891 30.7256 127.891 31.4989C127.891 32.3322 127.788 33.0889 127.581 33.7689C127.374 34.4489 127.078 35.0322 126.691 35.5189C126.311 35.9989 125.851 36.3722 125.311 36.6389C124.771 36.9056 124.171 37.0389 123.511 37.0389C123.191 37.0389 122.901 37.0056 122.641 36.9389C122.381 36.8789 122.141 36.7922 121.921 36.6789C121.701 36.5656 121.498 36.4289 121.311 36.2689C121.131 36.1022 120.958 35.9189 120.791 35.7189L120.681 36.4089C120.641 36.5822 120.571 36.7056 120.471 36.7789C120.378 36.8522 120.248 36.8889 120.081 36.8889H118.451V22.0289H120.921V27.8889ZM135.218 32.5089C134.505 32.5422 133.905 32.6056 133.418 32.6989C132.932 32.7856 132.542 32.8989 132.248 33.0389C131.955 33.1789 131.745 33.3422 131.618 33.5289C131.492 33.7156 131.428 33.9189 131.428 34.1389C131.428 34.5722 131.555 34.8822 131.808 35.0689C132.068 35.2556 132.405 35.3489 132.818 35.3489C133.325 35.3489 133.762 35.2589 134.128 35.0789C134.502 34.8922 134.865 34.6122 135.218 34.2389V32.5089ZM129.558 28.0589C130.738 26.9789 132.158 26.4389 133.818 26.4389C134.418 26.4389 134.955 26.5389 135.428 26.7389C135.902 26.9322 136.302 27.2056 136.628 27.5589C136.955 27.9056 137.202 28.3222 137.368 28.8089C137.542 29.2956 137.628 29.8289 137.628 30.4089V36.8889H136.508C136.275 36.8889 136.095 36.8556 135.968 36.7889C135.842 36.7156 135.742 36.5722 135.668 36.3589L135.448 35.6189C135.188 35.8522 134.935 36.0589 134.688 36.2389C134.442 36.4122 134.185 36.5589 133.918 36.6789C133.652 36.7989 133.365 36.8889 133.058 36.9489C132.758 37.0156 132.425 37.0489 132.058 37.0489C131.625 37.0489 131.225 36.9922 130.858 36.8789C130.492 36.7589 130.175 36.5822 129.908 36.3489C129.642 36.1156 129.435 35.8256 129.288 35.4789C129.142 35.1322 129.068 34.7289 129.068 34.2689C129.068 34.0089 129.112 33.7522 129.198 33.4989C129.285 33.2389 129.425 32.9922 129.618 32.7589C129.818 32.5256 130.075 32.3056 130.388 32.0989C130.702 31.8922 131.085 31.7122 131.538 31.5589C131.998 31.4056 132.532 31.2822 133.138 31.1889C133.745 31.0889 134.438 31.0289 135.218 31.0089V30.4089C135.218 29.7222 135.072 29.2156 134.778 28.8889C134.485 28.5556 134.062 28.3889 133.508 28.3889C133.108 28.3889 132.775 28.4356 132.508 28.5289C132.248 28.6222 132.018 28.7289 131.818 28.8489C131.618 28.9622 131.435 29.0656 131.268 29.1589C131.108 29.2522 130.928 29.2989 130.728 29.2989C130.555 29.2989 130.408 29.2556 130.288 29.1689C130.168 29.0756 130.072 28.9689 129.998 28.8489L129.558 28.0589ZM143.238 37.0489C142.345 37.0489 141.658 36.7989 141.178 36.2989C140.705 35.7922 140.468 35.0956 140.468 34.2089V28.4789H139.418C139.285 28.4789 139.171 28.4356 139.078 28.3489C138.985 28.2622 138.938 28.1322 138.938 27.9589V26.9789L140.588 26.7089L141.108 23.9089C141.141 23.7756 141.205 23.6722 141.298 23.5989C141.391 23.5256 141.511 23.4889 141.658 23.4889H142.938V26.7189H145.678V28.4789H142.938V34.0389C142.938 34.3589 143.015 34.6089 143.168 34.7889C143.328 34.9689 143.545 35.0589 143.818 35.0589C143.971 35.0589 144.098 35.0422 144.198 35.0089C144.305 34.9689 144.395 34.9289 144.468 34.8889C144.548 34.8489 144.618 34.8122 144.678 34.7789C144.738 34.7389 144.798 34.7189 144.858 34.7189C144.931 34.7189 144.991 34.7389 145.038 34.7789C145.085 34.8122 145.135 34.8656 145.188 34.9389L145.928 36.1389C145.568 36.4389 145.155 36.6656 144.688 36.8189C144.221 36.9722 143.738 37.0489 143.238 37.0489ZM151.721 26.4689C152.481 26.4689 153.171 26.5922 153.791 26.8389C154.418 27.0856 154.951 27.4356 155.391 27.8889C155.838 28.3422 156.181 28.8956 156.421 29.5489C156.661 30.2022 156.781 30.9322 156.781 31.7389C156.781 32.5522 156.661 33.2856 156.421 33.9389C156.181 34.5922 155.838 35.1489 155.391 35.6089C154.951 36.0689 154.418 36.4222 153.791 36.6689C153.171 36.9156 152.481 37.0389 151.721 37.0389C150.955 37.0389 150.258 36.9156 149.631 36.6689C149.005 36.4222 148.468 36.0689 148.021 35.6089C147.581 35.1489 147.238 34.5922 146.991 33.9389C146.751 33.2856 146.631 32.5522 146.631 31.7389C146.631 30.9322 146.751 30.2022 146.991 29.5489C147.238 28.8956 147.581 28.3422 148.021 27.8889C148.468 27.4356 149.005 27.0856 149.631 26.8389C150.258 26.5922 150.955 26.4689 151.721 26.4689ZM151.721 35.1389C152.575 35.1389 153.205 34.8522 153.611 34.2789C154.025 33.7056 154.231 32.8656 154.231 31.7589C154.231 30.6522 154.025 29.8089 153.611 29.2289C153.205 28.6489 152.575 28.3589 151.721 28.3589C150.855 28.3589 150.211 28.6522 149.791 29.2389C149.378 29.8189 149.171 30.6589 149.171 31.7589C149.171 32.8589 149.378 33.6989 149.791 34.2789C150.211 34.8522 150.855 35.1389 151.721 35.1389ZM160.996 28.4089C161.316 27.7956 161.696 27.3156 162.136 26.9689C162.576 26.6156 163.096 26.4389 163.696 26.4389C164.169 26.4389 164.549 26.5422 164.836 26.7489L164.676 28.5989C164.642 28.7189 164.592 28.8056 164.526 28.8589C164.466 28.9056 164.382 28.9289 164.276 28.9289C164.176 28.9289 164.026 28.9122 163.826 28.8789C163.632 28.8456 163.442 28.8289 163.256 28.8289C162.982 28.8289 162.739 28.8689 162.526 28.9489C162.312 29.0289 162.119 29.1456 161.946 29.2989C161.779 29.4456 161.629 29.6256 161.496 29.8389C161.369 30.0522 161.249 30.2956 161.136 30.5689V36.8889H158.666V26.6289H160.116C160.369 26.6289 160.546 26.6756 160.646 26.7689C160.746 26.8556 160.812 27.0156 160.846 27.2489L160.996 28.4089Z" fill="black"/>
<defs>
<clipPath id="clip0_7_2109">
<rect width="37.7669" height="55.5312" fill="white" transform="translate(0 10.4583)"/>
</clipPath>
</defs>
</svg>
